<svg width="1536" height="1024" version="1.1" xmlns="http://www.w3.org/2000/svg" desc="Created with imagetracer.js version 1.2.6" ><path fill="rgb(73,60,49)" stroke="rgb(73,60,49)" stroke-width="1" opacity="0.9215686274509803" d="M 827.5 433 L 844.5 434 L 857.5 437 Q 874.2 442.8 884 455.5 L 892 468.5 L 896 480.5 Q 894.7 485.2 897 486.5 L 897 505.5 Q 892.4 533.4 873.5 547 Q 863.4 554.9 848.5 558 L 824.5 559 L 803.5 554 Q 791.2 548.8 783 539.5 Q 774.6 530.4 770 517.5 L 767 503.5 L 767 488.5 Q 769.8 486.7 768 480.5 L 775 462.5 L 789.5 446 L 803.5 438 L 812.5 435 L 826.5 434 L 827.5 433 Z M 824 443 L 811 449 Q 802 456 798 467 L 794 483 L 794 507 L 799 525 L 804 534 L 816 544 L 829 548 Q 847 550 855 541 L 858 539 Q 865 532 868 522 L 870 513 L 870 502 L 871 501 Q 869 495 870 486 L 868 477 L 858 457 Q 852 449 844 445 L 836 443 L 824 443 Z " /><path fill="rgb(73,60,49)" stroke="rgb(73,60,49)" stroke-width="1" opacity="0.9215686274509803" d="M 420.5 434 L 445.5 434 Q 446.7 436.2 451.5 435 Q 466.1 438.9 474 449.5 L 477 454.5 L 480 466.5 L 480 532.5 L 483 543 L 493.5 545 L 499.5 543 Q 502 544 501 548.5 Q 492.9 558.9 474.5 559 L 467.5 557 L 461 551.5 L 455.5 537 L 448 547 L 430.5 557 L 420.5 559 L 410.5 559 L 399.5 557 Q 389.8 553.7 384 546.5 Q 377.4 540.1 378 526.5 L 380 517.5 L 383 511.5 L 390.5 503 Q 399.3 495.8 411.5 492 L 441.5 486 L 455 482 L 454 460.5 Q 452.2 452.3 446.5 448 L 435.5 443 L 422.5 443 Q 414.4 444.4 411 450.5 L 410 457.5 Q 412.8 459.2 412 464.5 L 408.5 470 Q 404.5 473 397.5 473 Q 390.9 472.1 388 467.5 Q 384.7 463.8 386 455.5 Q 388.9 447.4 395.5 443 L 402.5 439 L 420.5 434 Z M 454 491 L 450 493 L 427 498 L 414 505 L 407 513 L 404 523 Q 404 532 408 538 Q 412 543 420 544 L 430 544 L 444 537 Q 453 530 455 517 L 455 492 L 454 491 Z " /><path fill="rgb(73,60,49)" stroke="rgb(73,60,49)" stroke-width="1" opacity="0.9215686274509803" d="M 536.5 434 Q 541.6 433.4 543 436.5 L 544 439.5 L 544 517.5 L 547 531.5 L 553.5 540 Q 560.5 546 575.5 544 Q 588.3 540.3 595 530.5 L 599 522.5 Q 597.8 517.8 600 516.5 L 600 458.5 L 596.5 451 Q 591.1 447.9 581.5 449 L 580 447.5 Q 579.5 443.5 582.5 443 L 612.5 435 L 620.5 434 L 623 436.5 L 625 442.5 L 625 538.5 L 628 545 Q 632.9 548.3 643.5 547 L 645 548.5 L 646 550.5 L 645 553 L 629.5 558 L 615.5 559 Q 608.5 557.4 605 552.5 L 599.5 539 L 592.5 547 Q 584.3 554.8 571.5 558 L 554.5 559 L 541.5 556 Q 532.8 553.2 528 546.5 L 523 538.5 L 520 526.5 L 520 458.5 L 517 451 L 509.5 449 L 501.5 449 L 500 447.5 Q 499.5 443.5 502.5 443 L 517.5 440 L 536.5 434 Z " /><path fill="rgb(73,60,49)" stroke="rgb(73,60,49)" stroke-width="1" opacity="0.9215686274509803" d="M 696.5 434 L 703 435 L 705 447.5 L 704 448.5 L 704 457.5 L 706 456.5 L 712 447 L 725.5 437 L 735.5 434 L 749.5 434 Q 757.7 435.8 762 441.5 Q 765.3 445.2 764 453.5 L 761 459 Q 756.8 463 747.5 463 L 744.5 462 L 735.5 453 L 726.5 452 Q 718 454.5 713 460.5 Q 707.9 466.4 706 475.5 L 706 541.5 L 710.5 547 L 724.5 549 L 727 551.5 Q 727.5 555.5 724.5 556 L 662.5 556 L 661 554.5 Q 660.5 550.5 663.5 550 L 676.5 547 L 679 544.5 L 681 539.5 L 681 459.5 L 680 454.5 L 675.5 450 L 662.5 449 L 661 447.5 Q 660.5 443.5 663.5 443 L 670.5 442 L 696.5 434 Z " /><path fill="rgb(73,60,49)" stroke="rgb(73,60,49)" stroke-width="1" opacity="0.9215686274509803" d="M 944.5 434 Q 950 433 951 436.5 L 952 438.5 L 952.5 458 L 959.5 448 L 973.5 437 L 982.5 434 L 998.5 434 Q 1006.1 435.9 1010 441.5 Q 1013.3 445.2 1012 453.5 L 1005.5 461 L 997.5 463 L 991.5 461 L 981.5 452 L 973.5 452 Q 965.1 455.1 960 461.5 L 956 468.5 L 953 480.5 L 953 538.5 L 956.5 546 L 961.5 548 L 974.5 549 L 977 550 L 978 554.5 L 976.5 556 L 909.5 556 Q 907.3 555.3 908 551.5 L 909.5 550 L 926 546 L 928 541.5 L 928 455.5 L 924.5 451 L 917.5 449 L 909.5 449 L 908 447.5 Q 907.5 443.5 910.5 443 L 925.5 440 L 944.5 434 Z " /><path fill="rgb(73,60,49)" stroke="rgb(73,60,49)" stroke-width="1" opacity="0.9215686274509803" d="M 1065.5 434 L 1090.5 434 L 1100.5 436 Q 1112.3 439.7 1119 448.5 Q 1123.5 454.5 1125 463.5 L 1125 530.5 L 1127 538.5 L 1130.5 543 L 1139.5 545 L 1145.5 543 Q 1148.8 543.8 1148 548.5 Q 1139.3 558.8 1120.5 559 L 1115.5 558 L 1108 554 L 1103 545.5 L 1101.5 537 L 1089.5 550 Q 1078 559.5 1056.5 559 L 1040.5 555 L 1029 545.5 Q 1022.1 538.4 1024 522.5 Q 1027.5 508 1038.5 501 Q 1049.2 493.7 1063.5 490 L 1091.5 485 L 1101 480.5 L 1100 459.5 Q 1097.9 451.2 1091.5 447 Q 1083.8 440.7 1067.5 443 Q 1060.5 444.6 1057 449.5 L 1056 458.5 Q 1058.5 460 1057 465.5 L 1052.5 471 L 1043.5 473 L 1038.5 472 L 1034 468.5 L 1031 459.5 Q 1033.1 447.1 1042.5 442 L 1052.5 437 L 1065.5 434 Z M 1100 491 L 1069 499 L 1057 506 L 1050 519 Q 1048 531 1053 537 Q 1057 542 1065 544 L 1076 544 Q 1085 542 1091 536 L 1097 529 L 1101 516 L 1101 492 L 1100 491 Z " /><path fill="rgb(0,0,0)" stroke="rgb(0,0,0)" stroke-width="1" opacity="0" d="M 0 0 L 1536 0 L 1536 1024 L 0 1024 L 0 0 Z M 828 433 L 827 434 L 813 435 L 804 438 L 790 446 L 775 463 L 768 481 Q 770 487 767 489 L 767 504 L 770 518 Q 775 530 783 540 Q 791 549 804 554 L 825 559 L 849 558 Q 863 555 874 547 Q 892 533 897 506 L 897 487 Q 895 485 896 481 L 892 469 L 884 456 Q 874 443 858 437 L 845 434 L 828 433 Z M 421 434 L 403 439 L 396 443 Q 389 447 386 456 Q 385 464 388 468 Q 391 472 398 473 Q 404 473 409 470 L 412 465 Q 413 459 410 458 L 411 451 Q 414 444 423 443 L 436 443 L 447 448 Q 452 452 454 461 L 455 482 L 442 486 L 412 492 Q 399 496 391 503 L 383 512 L 380 518 L 378 527 Q 377 540 384 547 Q 390 554 400 557 L 411 559 L 421 559 L 431 557 L 448 547 L 456 537 L 461 552 L 468 557 L 475 559 Q 493 559 501 549 Q 502 544 500 543 L 494 545 L 483 543 L 480 533 L 480 467 L 477 455 L 474 450 Q 466 439 452 435 Q 447 436 446 434 L 421 434 Z M 537 434 L 518 440 L 503 443 Q 500 444 500 448 L 502 449 L 510 449 L 517 451 L 520 459 L 520 527 L 523 539 L 528 547 Q 533 553 542 556 L 555 559 L 572 558 Q 584 555 593 547 L 600 539 L 605 553 Q 609 557 616 559 L 630 558 L 645 553 L 646 551 L 645 549 L 644 547 Q 633 548 628 545 L 625 539 L 625 443 L 623 437 L 621 434 L 613 435 L 583 443 Q 580 444 580 448 L 582 449 Q 591 448 597 451 L 600 459 L 600 517 Q 598 518 599 523 L 595 531 Q 588 540 576 544 Q 561 546 554 540 L 547 532 L 544 518 L 544 440 L 543 437 Q 542 433 537 434 Z M 697 434 L 671 442 L 664 443 Q 660 444 661 448 L 663 449 L 676 450 L 680 455 L 681 460 L 681 540 L 679 545 L 677 547 L 664 550 Q 660 550 661 555 L 663 556 L 725 556 Q 728 555 727 552 L 725 549 L 711 547 L 706 542 L 706 476 Q 708 466 713 461 Q 718 455 727 452 L 736 453 L 745 462 L 748 463 Q 757 463 761 459 L 764 454 Q 765 445 762 442 Q 758 436 750 434 L 736 434 L 726 437 L 712 447 L 706 457 L 704 458 L 704 449 L 705 448 L 703 435 L 697 434 Z M 945 434 L 926 440 L 911 443 Q 908 444 908 448 L 910 449 L 918 449 L 925 451 L 928 456 L 928 542 L 926 546 L 910 550 L 908 552 Q 907 555 910 556 L 977 556 L 978 555 L 977 550 L 975 549 L 962 548 L 957 546 L 953 539 L 953 481 L 956 469 L 960 462 Q 965 455 974 452 L 982 452 L 992 461 L 998 463 L 1006 461 L 1012 454 Q 1013 445 1010 442 Q 1006 436 999 434 L 983 434 L 974 437 L 960 448 L 953 458 L 952 439 L 951 437 Q 950 433 945 434 Z M 1066 434 L 1053 437 L 1043 442 Q 1033 447 1031 460 L 1034 469 L 1039 472 L 1044 473 L 1053 471 L 1057 466 Q 1059 460 1056 459 L 1057 450 Q 1061 445 1068 443 Q 1084 441 1092 447 Q 1098 451 1100 460 L 1101 481 L 1092 485 L 1064 490 Q 1049 494 1039 501 Q 1028 508 1024 523 Q 1022 538 1029 546 L 1041 555 L 1057 559 Q 1078 560 1090 550 L 1102 537 L 1103 546 L 1108 554 L 1116 558 L 1121 559 Q 1139 559 1148 549 Q 1149 544 1146 543 L 1140 545 L 1131 543 L 1127 539 L 1125 531 L 1125 464 Q 1124 454 1119 449 Q 1112 440 1101 436 L 1091 434 L 1066 434 Z " /><path fill="rgb(0,0,0)" stroke="rgb(0,0,0)" stroke-width="1" opacity="0" d="M 823.5 443 L 835.5 443 L 843.5 445 Q 852.3 449.3 858 456.5 L 868 476.5 L 870 485.5 Q 868.5 495 871 500.5 L 870 501.5 L 870 512.5 L 868 521.5 Q 864.5 532 857.5 539 L 854.5 541 Q 846.7 549.7 828.5 548 L 815.5 544 L 804 533.5 L 799 524.5 L 794 506.5 L 794 482.5 L 798 466.5 Q 802.2 455.7 810.5 449 L 823.5 443 Z " /><path fill="rgb(0,0,0)" stroke="rgb(0,0,0)" stroke-width="1" opacity="0" d="M 453.5 491 L 455 491.5 L 455 516.5 Q 452.8 530.3 443.5 537 L 429.5 544 L 419.5 544 Q 412 542.5 408 537.5 Q 403.8 532.2 404 522.5 L 407 512.5 L 413.5 505 L 426.5 498 L 449.5 493 L 453.5 491 Z " /><path fill="rgb(0,0,0)" stroke="rgb(0,0,0)" stroke-width="1" opacity="0" d="M 1099.5 491 L 1101 491.5 L 1101 515.5 L 1097 528.5 L 1090.5 536 Q 1084.7 541.7 1075.5 544 L 1064.5 544 Q 1056.8 542.2 1053 536.5 Q 1048 531 1050 518.5 L 1057 506 L 1068.5 499 L 1099.5 491 Z " /></svg>