<svg id="svg" version="1.1" viewBox="0 0 300 200" width="300" height="200" xmlns="http://www.w3.org/2000/svg"><svg xmlns="http://www.w3.org/2000/svg"><defs><clipPath id="clip-1"><rect x="0" y="0" transform="scale(0.14648,0.14652)" width="2048" height="1365" fill="none"/></clipPath></defs><g clip-path="url(#clip-1)" fill="none" fill-rule="nonzero" stroke="none" stroke-width="1" stroke-linecap="butt" stroke-linejoin="miter" stroke-miterlimit="10" stroke-dasharray="" stroke-dashoffset="0" font-family="none" font-weight="none" font-size="none" text-anchor="none" style="mix-blend-mode: normal"><path d="M75.73286,78.67736c10.87002,-0.52923 20.10513,7.86799 20.61182,18.74183c0.50654,10.8737 -7.90781,20.09363 -18.77988,20.57788c-10.84043,0.48278 -20.02515,-7.90359 -20.53037,-18.74549c-0.50508,-10.84205 7.86021,-20.04645 18.69844,-20.57421z" fill="#191817"/><path d="M75.24287,79.07575c10.62231,-0.79692 19.88057,7.16674 20.68359,17.79106c0.80303,10.62432 -7.15312,19.88967 -17.77441,20.69934c-10.63022,0.81011 -19.90283,-7.15619 -20.70645,-17.78945c-0.80376,-10.63326 7.16616,-19.90344 17.79727,-20.70095z" fill="#fbf1e4"/><path d="M75.18398,79.81026c10.19282,-0.82842 19.13437,6.74813 19.99321,16.94095c0.85869,10.19282 -6.68906,19.15927 -16.87676,20.04879c-10.23091,0.89333 -19.2416,-6.69553 -20.1041,-16.93158c-0.86235,-10.23604 6.75146,-19.22623 16.98765,-20.05817z" fill="#191817"/><path d="M75.67397,80.20703c1.13467,-0.14286 3.35215,0.07326 4.48564,0.27619c4.68311,0.83897 8.83477,3.52029 11.52642,7.4444c5.55908,8.04996 3.94453,18.60527 -3.81782,24.75326c-0.25664,0.20322 -0.43271,0.34286 -0.74209,0.28293c0.07881,-2.24864 -0.84463,-1.71502 -0.51475,-3.00117c0.74355,-0.10432 1.29214,1.37919 2.38374,0.45963l-0.06445,-0.09949c-0.63179,0.00894 -0.92285,0.02535 -1.35703,-0.45216c-0.5187,-1.71048 3.63633,-3.09656 0.66489,-6.73421c1.45078,-3.37934 -2.78335,-4.24176 -0.49321,-7.08176c-0.39448,-0.91399 -1.36201,-2.40029 -1.50293,-2.86784c0.05332,-0.48879 1.31704,-2.56015 1.65967,-3.18007c0.40854,-0.68029 1.26343,-1.82183 1.24893,-2.61509c-0.0063,-0.34886 -0.23716,-0.61509 -0.48838,-0.83985c-0.50698,-0.45377 -1.11987,-0.80571 -1.72471,-1.11077c-0.78164,-0.39429 -6.65874,-2.9244 -7.26372,-2.8844c-1.0415,0.06886 -2.12593,0.68967 -3.05933,1.12894c-1.22271,0.57553 -2.60552,1.12791 -3.70723,1.90667c-1.61484,1.14139 -2.9332,3.55399 -4.22812,5.08967c-1.67959,-1.67941 -1.92642,-1.12645 -3.57114,0.27062c-0.23672,1.01538 -0.30161,1.60352 -0.40342,2.62447c-0.51021,0.70374 -1.21934,1.75106 -1.81099,2.34374c-0.15864,0.01231 -0.74282,0.0652 -0.83892,0.12513c-1.07534,0.67004 -2.95444,4.7559 -3.35962,5.81216c-0.10298,-0.6022 -0.18457,-1.20791 -0.24463,-1.81597c-0.45439,-4.81538 1.03682,-9.61231 4.14097,-13.32073c3.35259,-3.96322 7.95967,-6.07883 13.08223,-6.51429z" fill="#fbf1e4"/><path d="M90.73608,93.05333c0.28052,0.56659 0.60308,0.58315 0.7229,1.03223c-0.38965,0.42242 -0.47432,0.56747 -0.77314,1.05773c-0.28945,-0.73934 -0.49497,-0.57421 -0.69609,-1.15678z" fill="#c89458"/><path d="M68.75171,84.68733c0.13213,0.56659 0.39419,0.59971 0.6312,1.09949c-0.23584,0.34652 -0.46011,0.63912 -0.71514,0.96967c-0.2332,-0.59531 -0.4771,-0.52747 -0.65464,-1.07311c0.32578,-0.36996 0.46846,-0.58198 0.73857,-0.99604z" fill="#c89458"/><path d="M69.7207,92.84938l0.01567,-0.19473c0.04307,-0.59473 -0.32373,-1.92879 -0.28081,-2.15326c0.17373,-0.90886 2.52026,-3.62916 3.26631,-4.29597c1.14287,-1.02154 5.72314,-3.50813 7.16631,-3.3981c0.76362,0.05817 1.71753,0.80908 2.4063,1.15282c0.03809,0.0189 0.18604,0.09451 0.19072,0.09158c-0.45278,-0.05026 -0.53291,-0.05832 -0.98218,-0.01055c-0.3186,0.30256 -1.52666,2.43634 -1.9084,3.03238c0.92051,0.44615 5.52891,2.79385 6.19087,2.81436c-1.00869,-0.80117 -4.42617,-2.29451 -5.75317,-2.89817c0.53159,-0.94139 1.05586,-1.88689 1.57251,-2.83648c0.97969,0.36117 2.89658,1.22667 3.81548,1.37729l0.23613,-0.05641c-0.94395,-0.39883 -2.16387,-0.87458 -3.05596,-1.33495c0.52588,-0.15311 4.20688,1.6463 4.94282,1.97275c0.3772,0.16733 1.13906,0.8419 1.48521,1.14593c-0.92256,2.04894 -2.3124,4.43678 -3.5584,6.3033c0.27407,-0.41055 -2.93218,2.60425 -2.76343,2.46799c-0.95625,-0.01524 -5.55908,-3.01465 -7.13481,-3.6715c-1.98926,0.44601 -3.78413,0.1052 -5.85117,0.49172z" fill="#8997a6"/><path d="M81.60483,84.15326c0.97969,0.36117 2.89658,1.22667 3.81548,1.37729c0.16948,0.06066 0.59751,0.22799 0.75029,0.2504c0.3397,0.80864 0.68467,0.98828 1.40728,1.52923c-0.32563,0.67985 -1.17627,2.18916 -1.32964,2.75824l-0.46274,-0.18051c-1.00869,-0.80117 -4.42617,-2.29451 -5.75317,-2.89817c0.53159,-0.94139 1.05586,-1.88689 1.57251,-2.83648z" fill="#fdfdfc"/><path d="M84.37588,88.00454l-0.11162,-0.16777l0.21328,-0.38769c0.00029,-0.3515 0.04907,-0.18081 -0.2436,-0.49363c-0.15923,0.35092 -0.20068,0.42681 -0.41309,0.74784l-0.27583,0.02696c-0.49951,-0.34125 -0.38862,-0.16659 -0.59722,-0.67106c0.1749,-0.47048 0.07676,-0.30681 0.55166,-0.62813c0.55459,0.02081 0.38203,0.01626 0.91304,0.43648c0.44487,-0.02755 0.32974,-0.06095 0.74385,-0.52088l0.23159,0.06344l0.43594,0.01348c0.49731,0.78037 0.08687,1.72234 -0.99712,1.89201z" fill="#191817"/><path d="M85.38794,86.41011l0.43594,0.01348c0.49731,0.78037 0.08687,1.72234 -0.99712,1.89201l-0.45088,-0.31106c0.52017,-0.65568 0.6728,-0.84 1.01206,-1.59443z" fill="#fbf1e4"/><path d="M81.80962,84.94418c0.38437,0.56293 0.78325,1.08147 0.93311,1.75194l-0.14517,0.19516l0.1166,-0.0293c-0.10107,0.1707 -0.02915,0.09582 -0.28594,0.16352l-0.03281,-0.4441c-0.72393,-0.15868 0.0249,-0.06212 -0.52925,-0.57714l-0.85151,0.64689c-0.01377,-0.44469 0.53613,-1.24498 0.79497,-1.70696z" fill="#191817"/><path d="M86.17061,85.78095c0.59648,0.34784 1.28496,1.00498 1.74331,1.52513c-0.37236,0.77495 -1.00664,2.28645 -1.66567,2.76234c0.15337,-0.56908 1.004,-2.07839 1.32964,-2.75824c-0.72261,-0.54095 -1.06758,-0.72059 -1.40728,-1.52923z" fill="#323538"/><path d="M78.83804,83.64117c0.04072,0.87604 -4.05688,6.8674 -4.83794,7.97026l-0.04775,-0.13231c0.20728,-0.65143 4.29785,-6.96908 4.88569,-7.83795z" fill="#323538"/><path d="M69.66826,103.95634c0.04189,-0.53582 -0.03486,-0.99106 0.26704,-1.29333c1.17378,0.77084 1.84277,0.03136 2.41597,1.25934c0.7752,1.66081 2.25469,-0.31033 2.67979,-0.15868c0.73271,0.26154 2.49448,0.80542 2.83462,1.43399c-0.15586,0.65714 -0.58594,1.36674 -0.12627,1.92264c0.70693,0.85524 0.62314,1.38418 0.64878,2.47326c0.07061,3.01084 -0.38203,5.34667 3.03633,6.39194c-5.38359,0.8844 -9.73564,0.697 -14.52041,-2.35985c0.54199,-3.56044 0.85854,-4.51253 2.30742,-7.86462c0.25488,-0.5474 0.34731,-1.20894 0.45674,-1.80469z" fill="#9d8b76"/><path d="M69.66826,103.95634c0.42188,0.22667 0.73315,0.30022 0.95332,0.65832c-0.22822,0.16029 -0.20654,0.09729 -0.56909,0.05963c-0.03398,0.63473 0.72261,0.79985 0.18882,1.33084c-0.49614,-0.03267 -0.56777,-0.0567 -1.02979,-0.2441c0.25488,-0.5474 0.34731,-1.20894 0.45674,-1.80469z" fill="#ab9e8c"/><path d="M74.51074,104.43927c0.25854,0.05641 1.45239,0.50901 1.61133,0.68337c-0.23979,0.12322 -0.32959,0.09377 -0.61362,0.11194c-0.51973,-0.17802 -0.64775,-0.3874 -0.99771,-0.79531z" fill="#534136"/><path d="M62.15684,96.19722c1.3582,0.07912 2.57534,1.08908 3.35215,2.13612c-0.45469,0.9515 -1.24175,2.28733 -1.76602,3.24352c-2.22642,-0.74388 -1.51465,-0.68835 -3.13037,-1.73421l-0.03574,0.1556c1.31396,1.76337 1.88687,1.7115 3.78618,1.32044c0.91978,-0.18945 0.90381,1.75429 1.29097,2.1496c0.3334,-0.55546 -0.38188,-1.33744 -0.09683,-1.983c0.86909,0.08322 0.71074,1.18271 1.22871,1.58886c0.05171,-0.58168 -0.16978,-0.98125 -0.39565,-1.51473c1.49868,-0.00996 1.76909,-0.19297 3.03325,0.62125c0.13022,3.18154 -1.54585,5.35179 -2.33818,8.57582c-6.56411,-1.66549 -4.99614,-2.75707 -8.13896,-7.88425c0.26675,-2.11223 1.91411,-5.07956 3.2105,-6.67502z" fill="#fdfdfc"/><path d="M64.38999,105.30974c0.41528,0.27062 2.19902,2.97538 2.61519,3.59516c-0.83174,-0.30212 -2.37876,-2.72308 -2.61519,-3.59516z" fill="#191817"/><path d="M81.27568,103.06095c0.87393,-0.05114 2.48408,-0.19385 3.2001,0.22608c0.53057,0.64205 0.2458,2.16821 0.17622,3.06139c1.57998,1.01553 -0.24756,5.71868 0.38027,6.58227c0.9876,-1.28117 0.09272,-7.56132 0.1125,-9.27048l0.26895,-0.05407c1.50249,0.6359 1.13232,4.23487 0.97163,5.58681c-0.1188,0.83883 -0.41162,2.17582 -0.35273,2.97275c0.13506,-0.34769 0.23892,-0.59267 0.40547,-0.9263c2.80254,1.85099 -3.4355,4.17407 -4.69395,4.54374c-2.79756,-0.70491 -3.03398,-2.63223 -3.12803,-5.19048c-0.04365,-1.18784 -0.04277,-2.40645 0.39258,-3.53114c0.12539,-0.32381 0.76685,-0.49597 1.08647,-0.61348c0.58784,-0.80996 -0.2001,-2.56513 1.18052,-3.38711z" fill="#fdfdfc"/><path d="M82.38267,107.22886c0.01802,0.06989 -1.20952,3.75326 -1.34458,4.26168c-0.45425,-0.93158 0.68379,-3.54886 1.34458,-4.26168z" fill="#191817"/><path d="M81.91743,106.13905c0.58945,-0.07179 1.58862,-0.07033 2.05078,0.34886c-0.3895,0.12352 -0.75278,0.01788 -1.1688,-0.04718c-0.01436,-0.00249 -1.63433,0.00234 -2.14585,-0.05436c0.32227,-0.183 0.8751,-0.20337 1.26387,-0.24733z" fill="#323538"/><path d="M74.21733,92.87209c0.20112,-0.03604 1.02876,-0.17817 1.18022,-0.13348c1.49165,0.43927 3.87261,1.70051 5.10205,2.67795c-0.1541,2.19868 -0.44648,2.44645 -1.39248,4.49201l-0.24653,0.13451c-1.49268,-1.33143 0.96182,-3.06125 1.19399,-4.44542c-0.28931,0.057 -0.35713,0.18462 -0.50933,0.46212c-0.88535,1.61509 -2.02603,2.38681 -0.97192,4.26315c-0.44399,0.40396 -1.35864,0.84454 -1.9585,0.95487c-1.13511,-0.29275 -0.1686,-2.03209 -0.96812,-3.00044c-1.01616,-1.23106 -3.07778,-0.79883 -3.15894,-2.88132c-0.15044,-0.63106 -0.11294,-1.43502 -0.11118,-2.09802c0.72671,-0.21832 1.0916,-0.33407 1.84072,-0.42593z" fill="#fdfdfc"/><path d="M72.37661,93.29802c0.72671,-0.21832 1.0916,-0.33407 1.84072,-0.42593c0.27612,0.47707 0.35142,0.53026 0.30015,1.04806c-0.52881,0.51912 -1.06436,0.38593 -1.86021,0.37905l-0.10049,-0.00088c-0.10737,0.47722 -0.08643,0.6 -0.06899,1.09773c-0.15044,-0.63106 -0.11294,-1.43502 -0.11118,-2.09802z" fill="#fabda8"/><path d="M70.41445,93.79824l0.11411,0.13656c-0.80947,2.49773 0.0126,1.89319 0.96973,4.12645c0.20244,0.47223 0.20933,0.80044 0.00308,1.25919c-0.96943,1.07385 -2.16782,0.54945 -3.19497,1.02168c-0.65815,0.30256 -0.62153,0.91985 -1.86167,1.0378c-2.99048,-0.72938 -1.41738,-0.783 -0.71777,-2.85714c0.01245,-0.03678 -0.20493,-0.88366 -0.23936,-1.01084c0.27495,-1.6926 3.41426,-3.35223 4.92686,-3.7137z" fill="#fbf1e4"/><path d="M70.82095,96.40015c-0.46362,-1.04381 -0.38159,-2.30154 0.71763,-2.86857l0.3394,0.12777c0.31538,0.41817 0.21519,0.93377 0.19951,1.49612c0.3252,1.38828 0.4793,1.62168 1.70669,2.47267c0.21504,1.41934 0.64058,3.32484 -0.28184,4.55341c-1.54937,2.0633 -3.8981,-0.43458 -5.55542,-0.96821l-0.12407,-0.20908c0.55239,-0.64718 1.64033,-0.50696 2.39458,-0.68967c2.31782,-0.56132 2.03042,-2.56088 0.60352,-3.91443z" fill="#9d8b76"/><path d="M70.82095,96.40015c-0.46362,-1.04381 -0.38159,-2.30154 0.71763,-2.86857l0.3394,0.12777c0.31538,0.41817 0.21519,0.93377 0.19951,1.49612l-0.3249,-0.0485c-0.16597,-0.343 -0.25825,-0.70813 -0.53965,-0.83722c-0.06328,0.92103 -0.00659,1.27678 -0.39199,2.1304z" fill="#ab9e8c"/><path d="M80.79785,95.56615c1.97256,0.90535 2.21689,3.7641 1.43115,5.48894c-0.4957,1.0885 -0.38584,1.60747 -1.50249,2.01817c-0.6999,0.25744 -0.61992,2.10696 -0.84976,2.90022c-0.38379,0.46945 -1.07915,1.02828 -1.67622,1.1833l-0.21138,-0.15619c-0.21973,-0.98828 0.14912,-1.79194 0.46904,-2.74139c0.75381,-1.47824 2.09238,-3.31179 1.92803,-5.05773c-0.3457,0.93817 -0.92329,2.7093 -1.43906,3.48513l-0.17285,0.02242c-0.62183,-1.04952 1.33916,-4.07692 1.70596,-5.1874c0.20742,-0.62769 0.25576,-1.2989 0.31758,-1.95546z" fill="#ab9e8c"/><path d="M81.52148,96.98447c0.97192,1.2737 -1.17334,5.11692 -1.60635,6.46359c-0.17461,0.54242 -0.21021,1.38359 -0.24126,1.95736l-0.1708,-0.1493c-0.61421,-1.74271 1.50996,-4.56117 1.82798,-6.33553c0.11646,-0.64982 0.15234,-1.28469 0.19043,-1.93612z" fill="#c2baa9"/><path d="M85.25405,98.94476l1.21597,-1.26198c0.33398,0.76527 0.6189,1.20088 1.06846,1.91194c0.75996,1.41905 0.72612,1.79839 0.6104,3.39341c-1.59771,-1.43209 -0.9917,-1.14418 -1.83545,-2.62974c-0.16582,0.36586 0.04629,1.07341 0.17534,1.47062c1.59009,1.58637 3.97075,3.54066 1.61484,5.72337c-0.15688,0.14476 -0.31597,0.28703 -0.47725,0.42681c-0.07456,0.69377 -0.3271,0.76249 -0.29414,1.76821l0.00718,0.18286c-1.89756,-0.85465 1.51567,-5.36484 -2.6666,-6.91062c0.15425,-1.36366 0.34805,-2.72249 0.58125,-4.07487z" fill="#9d8b76"/><path d="M86.31343,100.35839c0.03091,-0.36703 0.05713,-1.29641 0.22925,-1.55502c0.35215,0.44132 0.49233,0.53582 0.9958,0.79136c0.75996,1.41905 0.72612,1.79839 0.6104,3.39341c-1.59771,-1.43209 -0.9917,-1.14418 -1.83545,-2.62974z" fill="#c2baa9"/><path d="M86.67715,103.05553c1.22915,0.78286 1.37812,1.3874 1.74829,2.76557c-0.26089,0.83311 -0.45044,1.35868 -0.79907,2.1581c-0.49102,-2.04132 1.52739,-1.38227 -0.94922,-4.92366z" fill="#c2baa9"/><path d="M85.36919,93.86505c0.3709,-0.01201 0.45908,0.0167 0.82676,0.09451c0.58711,0.48117 0.91172,1.39985 1.24321,2.1156c-0.76216,0.9115 -1.56416,1.78857 -2.40396,2.62901c-0.32344,1.14623 -0.50669,2.96147 -0.66636,4.19575c-0.99185,-0.16996 -1.48008,-0.18828 -2.49478,-0.20864l0.68042,-1.84234c0.31143,-0.92703 0.46201,-1.42652 0.64351,-2.38344l-1.04766,-2.05685l0.10444,-0.09304c0.98042,0.37495 1.477,-0.06667 2.04229,0.19165c-0.27847,0.3833 -0.36299,0.49656 -0.54888,0.92967l0.14004,0.10711c0.29751,-0.35736 0.4645,-0.70256 0.78706,-1.04c0.50317,-0.52645 1.33711,-0.88718 1.39014,-1.64396c-0.33105,-0.3433 -0.2915,-0.23018 -0.92329,-0.28396l-0.09199,-0.19897z" fill="#fdfdfc"/><path d="M66.90762,89.91707l0.46934,0.02755c0.52017,0.35502 0.45601,0.1959 0.62212,0.68484l-0.2751,0.49421c0.23687,0.57846 0.39858,1.06696 0.2332,1.67326c-0.32358,0.28073 -0.1645,0.20879 -0.67324,0.19927c-0.14341,-0.3304 0.07676,-1.5619 0.10503,-2.08674l-0.1333,-0.08791c-0.29941,0.33744 -0.2332,1.77348 -0.7604,2.83971l-0.06899,0.13714l0.95654,0.14725c0.13184,-0.31077 0.13081,-0.36542 0.36899,-0.61304c0.39229,0.08205 0.82017,0.41846 1.0062,0.77729l-0.24639,0.20425c-2.0981,0.91326 -2.15127,1.08733 -3.34614,2.98916c-0.61685,-0.43546 -1.33828,-0.83267 -1.99673,-1.21407c1.80806,-2.37846 1.75063,-1.90886 2.23418,-4.98374c0.42451,-0.42842 1.00869,-0.82505 1.50469,-1.18842z" fill="#fdfdfc"/><path d="M62.00347,109.12615c2.28501,0.857 1.82666,1.14652 5.00449,1.9052c-0.12671,0.703 -0.21431,1.46168 -0.30908,2.17421l-0.07559,0.08c-1.08135,-0.11736 -3.89326,-3.2 -4.61982,-4.15941z" fill="#fbf1e4"/><path d="M74.4917,100.45245c3.24067,0.18081 0.09551,3.00967 -0.84932,3.77685c-0.57671,-0.05612 -1.04722,-0.09465 -1.15957,-0.71766c0.35508,-0.62974 0.40122,-0.50667 1.13687,-0.91531c0.53804,-0.85304 0.60571,-1.15004 0.87202,-2.14388z" fill="#fdfdfc"/><path d="M77.96675,100.92278c0.26689,0.01216 0.17344,-0.00454 0.41982,0.09656c-0.06416,1.45319 0.55488,2.69568 -0.73638,3.75223c-1.12236,-0.73758 -1.11958,-1.76029 -1.31763,-2.97231z" fill="#fdfdfc"/><path d="M74.14102,97.72044c1.17188,0.4441 1.9144,0.91077 1.68105,2.25011l-0.18281,0.04264c-0.04277,-0.58681 -0.04409,-0.87941 -0.23306,-1.45099c-0.16714,0.49509 0.02285,0.85245 -0.06299,1.53348c-0.41616,0.18491 -0.20098,0.15179 -0.67134,0.07458c-0.43184,-0.47897 -0.45806,-1.76205 -0.53086,-2.44982z" fill="#9d8b76"/><path d="M71.15903,92.95531c0.31479,-0.03443 0.77212,-0.13172 1.02627,0.00308c-0.86602,0.37201 -2.03584,0.62564 -2.96836,0.8611c-0.45864,-0.19736 -0.66812,-0.18696 -0.8707,-0.55341c0.38101,-0.20322 2.21748,-0.2526 2.81279,-0.31077z" fill="#fdfdfc"/><path d="M68.79346,90.72894c0.25298,0.07648 0.26924,0.11443 0.50186,0.26095c0.33911,0.67062 0.18604,1.22842 -0.03618,1.91795c-0.33823,-0.10256 -0.37017,-0.1833 -0.59282,-0.4526c-0.17432,-0.5978 -0.00029,-1.09978 0.12715,-1.7263z" fill="#fdfdfc"/><path d="M75.95303,102.3767c0.25679,0.25289 0.33105,0.59912 0.37339,0.93788c-0.19673,0.57289 -0.04878,0.36996 -0.61978,0.7389c-0.23335,-0.22828 -0.26851,-0.29524 -0.44883,-0.55824c0.10371,-0.59853 0.25063,-0.60059 0.69521,-1.11853z" fill="#fdfdfc"/><path d="M84.38115,94.75531c0.11191,0.06916 0.14136,0.143 0.22866,0.26095c-0.15161,0.68293 -0.66738,1.03165 -1.22314,1.39487c-0.21621,-0.12733 -0.12085,-0.04469 -0.24067,-0.2967c0.26396,-0.56484 0.76128,-0.93011 1.23516,-1.35912z" fill="#fdfdfc"/><path d="M219.08936,93.9452c3.56982,-0.31853 6.72217,2.31795 7.0415,5.88894c0.31934,3.57099 -2.31592,6.72454 -5.88574,7.04396c-3.57129,0.31941 -6.7251,-2.31722 -7.04297,-5.88879c-0.31934,-3.57158 2.31738,-6.72542 5.88721,-7.0441zM220.57324,105.80454c4.52783,-1.58535 3.91406,-10.98007 -1.51172,-10.84484c-1.02539,0.25143 -1.97607,0.7874 -2.46094,1.75502c-1.69189,3.37407 -0.8584,9.44747 3.97266,9.08982z" fill="#534136"/><path d="M243.55078,93.9663c7.17627,-0.36 4.49268,6.2589 5.10059,10.75531c0.1333,0.9833 1.61426,0.53538 2.14307,0.86183l-0.07031,0.38212c-0.80566,1.05817 -2.58252,1.13084 -3.63574,0.3896c-0.55664,-0.39165 -0.57861,-1.08396 -0.65625,-1.71077c-1.87061,2.15458 -4.32715,3.10799 -6.85547,1.34359c-0.60937,-0.64703 -0.99316,-1.47502 -1.09277,-2.35927c-0.38086,-3.53773 5.62061,-4.06799 7.89111,-4.34388c0.01758,-2.46051 -0.39404,-5.32117 -4.11182,-3.99385c-0.52734,0.18842 -0.50244,1.48205 -0.61816,2.05934c-0.4585,0.66256 -1.12646,0.69465 -1.80469,0.32557c-0.20654,-0.24015 -0.31641,-0.39004 -0.34277,-0.71546c-0.1875,-2.2948 2.3833,-2.78081 4.05322,-2.99414zM241.94092,105.23253c3.2959,0.78168 5.06982,-1.92454 4.37842,-4.90916c-0.07324,-0.01304 -0.23291,-0.05099 -0.29443,-0.03971c-1.30225,0.13451 -2.25,0.19458 -3.4585,0.78183c-1.92187,0.93407 -2.41846,2.6756 -0.62549,4.16703z" fill="#534136"/><path d="M178.7373,93.97597c6.90674,-0.24908 4.68604,5.47502 5.00977,9.92733c0.17578,2.41143 1.44287,1.07385 2.20166,1.71326l-0.04102,0.31385c-0.70898,0.83502 -2.77881,1.2381 -3.68115,0.52996c-0.51123,-0.40132 -0.55371,-1.13099 -0.63721,-1.73187c-1.99951,2.19619 -4.34619,2.92498 -6.94189,1.19341c-0.45996,-0.62667 -0.77637,-1.32527 -0.85547,-2.09714c-0.39844,-3.87194 5.21631,-4.21187 7.70361,-4.54198c0.00879,-2.43106 -0.1582,-5.13538 -3.87598,-4.11048c-0.91699,0.25304 -0.61963,1.46066 -0.90381,2.25934c-0.44678,0.53128 -0.99463,0.68454 -1.60693,0.30579c-0.81445,-0.50432 -0.52002,-1.69832 -0.02637,-2.32059c0.8877,-1.1156 2.35254,-1.28571 3.65479,-1.44088zM176.96777,105.16147c0.6416,0.2085 1.09424,0.36029 1.77246,0.21729c2.90332,-0.61172 2.80664,-2.6422 2.74512,-4.94784l-0.14502,-0.15736l-0.08203,0.00527c-1.69775,0.19194 -3.61377,0.39223 -4.78711,1.79941c-0.80127,0.96088 -0.29443,2.3011 0.49658,3.08322z" fill="#534136"/><path d="M189.63574,94.08396c0.32666,-0.04967 0.37207,-0.02491 0.69141,0.02462c0.81445,1.11136 -0.37939,9.33099 0.74268,10.2781c4.24951,3.58418 6.17871,-2.31326 5.61182,-5.7115c-0.14941,-0.90418 0.20801,-2.04015 -0.35449,-2.68103c-0.38086,-0.43443 -1.23193,-0.3052 -1.5498,-0.77509l0.13184,-0.25216c0.84668,-0.43136 2.96924,-0.85114 3.98291,-1.0737c0.10547,2.02491 0.03223,4.80645 0.03516,6.88879c-0.02344,1.27985 -0.16992,2.94755 0.18604,4.17832c0.13184,0.45949 1.42236,0.33993 1.83691,0.87429l-0.23291,0.31209c-0.73096,0.39399 -1.59961,0.53216 -2.41553,0.63077c-1.61133,0.19458 -1.51611,-1.25377 -1.5835,-2.37392c-0.06152,0.07546 -0.12158,0.15048 -0.18457,0.22491c-1.03711,1.24952 -2.05225,2.06198 -3.7002,2.19165c-6.04102,0.47531 -4.20117,-6.04322 -4.44873,-9.79209c-0.08203,-1.24249 -1.12061,-1.19179 -1.87061,-1.85084l0.04834,-0.21861c0.76611,-0.37875 2.19727,-0.6652 3.07324,-0.87458z" fill="#534136"/><path d="M231.64014,97.20088c0.82178,-1.55941 1.78564,-3.04542 3.83643,-3.23429c1.61279,-0.14842 3.08936,1.26154 1.65234,2.74623c-1.11621,0.76923 -1.69189,-0.86857 -2.44922,-0.83487c-3.58887,0.15941 -3.06738,5.97861 -3.02783,8.32718c0.24902,1.50696 0.62695,1.05509 2.01416,2.09363l0.01465,0.18989c-0.69727,0.23092 -5.52979,0.28923 -6.22412,-0.01832l-0.0542,-0.30681c0.4585,-0.52762 1.80615,-0.52542 1.86914,-1.21905c0.25049,-2.7496 0.28418,-5.84718 0.00439,-8.59546c-0.06152,-0.58901 -1.46924,-0.60308 -1.75635,-1.19604c0.38965,-0.5241 3.02197,-1.01846 3.80713,-1.20381l0.2168,0.20615c0.15088,0.74198 0.09961,2.23473 0.09668,3.04557z" fill="#534136"/><path d="M210.44238,93.96117c1.32861,0.17802 2.7334,1.08747 1.91748,2.52132c-1.84424,1.25011 -1.86475,-0.9052 -3.09814,-0.64674c-3.14941,0.65934 -2.80957,5.64381 -2.76416,7.93729c0.04834,2.4378 1.28174,1.53158 2.13428,2.30183l-0.02783,0.3348c-0.54492,0.4167 -4.90283,0.24176 -5.85645,0.2337c-0.29883,-0.10183 -0.16553,-0.01846 -0.37939,-0.30374l0.15381,-0.29978c0.92725,-0.42755 1.81055,-0.81143 1.8457,-1.97128c0.06152,-2.10198 -0.0498,-4.31971 -0.05273,-6.39927c-0.00439,-2.73963 -1.06787,-1.49612 -1.84424,-2.417l0.06006,-0.26842c0.78076,-0.4126 2.98242,-0.87707 3.90527,-1.07194c0.104,0.94842 0.08203,2.19179 0.09229,3.16718c1.1001,-1.91707 1.63477,-2.76674 3.91406,-3.11795z" fill="#534136"/><path d="M119.85732,93.95326c0.40649,0.54872 0.24038,3.38051 0.22896,4.24806c0.64146,-0.51736 1.31543,-0.82652 2.1605,-0.75253c0.66958,0.05319 1.28394,0.39209 1.68633,0.92996c1.2709,1.68513 0.59253,3.75941 -1.02759,4.91824c-1.21128,0.3496 -1.87471,0.08161 -3.05259,-0.23004c-0.29561,0.20396 -0.35786,0.23341 -0.68687,0.38476c-0.74253,-0.77245 0.13052,-6.62037 -0.27085,-7.94242c-0.29414,-0.96908 -0.60073,-0.41934 -0.87847,-0.98447c0.4147,-0.32571 1.28145,-0.44982 1.84058,-0.57158zM122.22319,102.84498c1.61484,-1.45978 1.55596,-4.84029 -1.22578,-4.67385c-1.5854,1.31853 -1.56812,5.35267 1.22578,4.67385z" fill="#534136"/><path d="M130.21055,97.51121c1.35615,-0.37231 2.7917,0.22491 3.48384,1.44938c0.69214,1.22447 0.46362,2.76293 -0.55459,3.73319c-0.34966,0.33304 -0.77285,0.57905 -1.23545,0.7178c-1.05835,0.31736 -2.20562,0.04132 -3.00381,-0.72308c-0.79805,-0.7644 -1.12383,-1.8989 -0.85269,-2.97026c0.27114,-1.0715 1.09717,-1.91443 2.1627,-2.20703zM131.64053,102.93568c1.71255,-1.48 1.49268,-4.94579 -1.01177,-4.91853c-0.08848,0.00103 -0.1771,0.00308 -0.26572,0.0063c-1.69189,1.48161 -1.44097,5.15853 1.27749,4.91223z" fill="#534136"/><path d="M139.77949,97.51267c1.60122,-0.39853 3.2291,0.54857 3.67456,2.13773c0.44546,1.58916 -0.45308,3.24454 -2.02808,3.7367c-0.65435,0.20454 -1.35864,0.18256 -1.99907,-0.06227c-1.24482,-0.47604 -2.03672,-1.70505 -1.95601,-3.03546c0.08071,-1.33055 1.01543,-2.4548 2.30859,-2.7767zM141.15293,102.90784c1.64136,-1.37919 1.33564,-4.86593 -0.76157,-4.89084c-0.15645,-0.00117 -0.31289,0.00205 -0.46919,0.00938c-1.78154,1.40088 -1.56416,5.0844 1.23076,4.88147z" fill="#534136"/><path d="M151.43994,103.40542c-0.46143,-0.79956 -1.52197,-2.7452 -2.55029,-2.35136c-0.38672,0.77011 0.07324,1.51165 0.63574,2.04205l0.10986,0.10286c-0.37939,0.25597 -2.24854,0.23575 -2.75977,0.1474l-0.12451,-0.19531c0.31641,-0.24835 0.43066,-0.31458 0.78662,-0.50872c0.37793,-0.89553 -0.02783,-5.84293 0.0835,-7.02623c0.03076,-0.32996 -0.41016,-0.87092 -0.60645,-1.17978c0.35742,-0.28908 1.2832,-0.42564 1.78711,-0.53377c0.03076,2.13348 0.00439,4.33758 0.00146,6.47722l0.84668,-0.77407l0.56543,0.26681c0.87598,1.01802 1.75488,2.59473 2.92383,3.12103c0.20361,0.09143 0.11865,0.02564 0.22266,0.2652c-0.40137,0.18755 -1.42822,0.14183 -1.92187,0.14667z" fill="#534136"/><path d="M106.84028,94.7644c0.3082,0.30842 0.31919,1.97407 0.5376,2.54505c0.18252,0.47751 0.29399,0.67868 0.54595,1.12689c1.44624,0.84777 1.93696,0.88615 3.56265,1.10593c-3.74326,0.50696 -4.15679,1.05861 -4.48652,4.81582c-0.28374,-0.58623 -0.3082,-2.78989 -1.19048,-3.70886c-0.90718,-0.94505 -2.47998,-0.95062 -3.71777,-1.07883c3.6917,-0.43253 4.604,-0.88366 4.74858,-4.80601z" fill="#c89458"/><path d="M159.00732,103.12337c0.42041,-0.2844 0.5918,-0.34842 0.80273,-0.81128c-0.03223,-1.48308 -2.54883,-1.33934 -3.33691,-3.00088c0.04834,-2.23927 3.96094,-2.5367 4.27881,-0.76586c-0.104,0.32703 -0.11572,0.50886 -0.39697,0.69436c-0.89941,-0.65978 -0.93311,-1.8589 -2.40527,-1.00103c-0.29297,0.44703 -0.23291,0.23751 -0.20215,0.80073c0.75146,1.15458 5.42285,1.75341 2.22803,4.29538c-1.20117,0.31238 -3.89355,0.4233 -3.36914,-1.55546c0.60352,-0.32923 0.86133,0.77348 1.47656,1.06667c0.26807,0.12791 0.48633,0.18623 0.76758,0.24557z" fill="#534136"/><path d="M257.10352,99.43311c1.03271,2.97788 0.04395,3.07941 3.87012,3.49773c-2.80518,0.36381 -3.36328,0.46799 -3.72803,3.45524c-0.4834,-0.25612 0.18896,-2.86579 -2.22656,-3.20601l-0.83789,-0.12088l-0.0498,-0.13275c2.50049,-0.56205 2.8623,-0.87956 2.97217,-3.49333z" fill="#c89458"/><path d="M112.38779,89.47853c0.30674,0.29568 0.40239,1.81744 0.67207,2.50916c0.64321,0.68791 1.82139,0.71062 2.74717,0.81084c-2.64785,0.39048 -2.83008,0.46652 -3.31216,3.17143c-0.32388,-0.17744 -0.2748,-1.76747 -0.6561,-2.27004c-0.49233,-0.64879 -1.77275,-0.78388 -2.54663,-0.9326c2.77295,-0.4274 2.79067,-0.5093 3.09565,-3.28879z" fill="#c89458"/><path d="M167.28662,92.51971l0.2124,0.16264c0.34717,0.69407 0.23584,13.99399 0.11719,15.23883h-0.19629c-0.32227,-0.44938 -0.15967,-13.71106 -0.1333,-15.40147z" fill="#ac6f37"/><path d="M149.6499,99.60571c0.99023,-0.84615 1.00635,-0.68557 1.02246,-1.93905c0.49072,-0.33685 2.23242,-0.06344 2.93262,0.00147c-1.85303,0.58154 -1.99072,0.88381 -3.38965,2.2044z" fill="#534136"/></g></svg></svg>